<svg width="24" height="24" viewBox="0 0 24 24" fill="none" xmlns="http://www.w3.org/2000/svg">
<path d="M21.0484 14.1268L20.4802 13.7987L20.3909 13.4882C21.6085 13.0634 22.6327 12.215 23.2767 11.0977C23.8106 10.173 24.0583 9.11084 23.9884 8.0454C23.9186 6.97997 23.5344 5.95917 22.8844 5.11209C22.2344 4.26502 21.3479 3.6297 20.3368 3.2865C19.3257 2.94329 18.2356 2.9076 17.2043 3.18395C16.173 3.46029 15.2467 4.03626 14.5427 4.83901C13.8387 5.64177 13.3886 6.63525 13.2492 7.69384C13.1099 8.75242 13.2875 9.82856 13.7598 10.7862C14.232 11.7438 14.9776 12.5398 15.9023 13.0737C17.0603 13.7423 18.3698 13.9325 19.5967 13.701L19.6747 14.0146L19.3466 14.5828L20.8707 20.2482L22.5612 19.7953L21.0484 14.1268ZM16.7328 11.6352C14.9418 10.6012 14.3308 8.32074 15.3648 6.52978C16.3988 4.73881 18.6793 4.12777 20.4702 5.16179C22.2612 6.19581 22.8722 8.47622 21.8382 10.2672C20.8042 12.0582 18.5238 12.6692 16.7328 11.6352Z" fill="url(#paint0_linear_334_11)"/>
<path d="M4.02871 20.3921L0 6.69826H4.0098L5.93904 15.2664H6.05253L8.30331 6.69826H11.4809L13.7506 15.3042H13.8641L15.7933 6.69826L19.8536 6.67304L15.7744 20.3921H12.3131L9.94884 12.5616H9.83536L7.47109 20.3921H4.02871Z" fill="url(#paint1_linear_334_11)"/>
<defs>
<linearGradient id="paint0_linear_334_11" x1="4.28825e-07" y1="7.5" x2="23.5" y2="20" gradientUnits="userSpaceOnUse">
<stop stop-color="#51AFE3"/>
<stop offset="1" stop-color="#92D5FA"/>
</linearGradient>
<linearGradient id="paint1_linear_334_11" x1="4.28825e-07" y1="7.5" x2="23.5" y2="20" gradientUnits="userSpaceOnUse">
<stop stop-color="#51AFE3"/>
<stop offset="1" stop-color="#92D5FA"/>
</linearGradient>
</defs>
</svg>
