<svg width="24" height="24" viewBox="0 0 24 24" fill="none" xmlns="http://www.w3.org/2000/svg">
<path d="M13.26 2.99995C8.17003 2.85995 4.00003 6.94995 4.00003 12H2.21003C1.76003 12 1.54003 12.54 1.86003 12.85L4.65003 15.65C4.85003 15.8499 5.16003 15.8499 5.36003 15.65L8.15003 12.85C8.21913 12.7795 8.26582 12.6901 8.28421 12.5931C8.30261 12.4961 8.29188 12.3958 8.25338 12.3049C8.21488 12.214 8.15033 12.1366 8.06788 12.0823C7.98542 12.028 7.88875 11.9994 7.79003 12H6.00003C6.00003 8.09995 9.18003 4.94995 13.1 4.99995C16.82 5.04995 19.95 8.17995 20 11.9C20.05 15.8099 16.9 19 13 19C11.39 19 9.90003 18.45 8.72003 17.52C8.52849 17.3691 8.28818 17.2938 8.0448 17.3086C7.80141 17.3233 7.57194 17.427 7.40003 17.6C6.98003 18.02 7.01003 18.73 7.48003 19.09C9.05116 20.3324 10.997 21.0057 13 21C18.05 21 22.14 16.83 22 11.74C21.87 7.04995 17.95 3.12995 13.26 2.99995ZM12.75 7.99995C12.34 7.99995 12 8.33995 12 8.74995V12.43C12 12.78 12.19 13.11 12.49 13.29L15.61 15.14C15.97 15.35 16.43 15.23 16.64 14.88C16.85 14.52 16.73 14.06 16.38 13.85L13.5 12.14V8.73995C13.5 8.33995 13.16 7.99995 12.75 7.99995Z" fill="#999999"/>
</svg>
